<svg xmlns="http://www.w3.org/2000/svg" version="1.1" xmlns:xlink="http://www.w3.org/1999/xlink" xmlns:svgjs="http://svgjs.dev/svgjs" width="2000" height="1500" viewBox="0 0 2000 1500"><rect width="2000" height="1500" fill="#ffffff"></rect><g transform="matrix(0.75,0,0,0.75,249.090909090909,435.1098978089582)"><svg viewBox="0 0 396 166" data-background-color="#ffffff" preserveAspectRatio="xMidYMid meet" height="838" width="2000" xmlns="http://www.w3.org/2000/svg" xmlns:xlink="http://www.w3.org/1999/xlink"><g id="tight-bounds" transform="matrix(1,0,0,1,0.2400000000000091,0.16906438140483715)"><svg viewBox="0 0 395.52 165.66187123719033" height="165.66187123719033" width="395.52"><g><svg viewBox="0 0 395.52 165.66187123719033" height="165.66187123719033" width="395.52"><g transform="matrix(1,0,0,1,0,102.3856824492444)"><svg viewBox="0 0 395.52 63.27618878794593" height="63.27618878794593" width="395.52"><g id="textblocktransform"><svg viewBox="0 0 395.52 63.27618878794593" height="63.27618878794593" width="395.52" id="textblock"><g><svg viewBox="0 0 395.52 63.27618878794593" height="63.27618878794593" width="395.52"><g transform="matrix(1,0,0,1,0,0)"><svg width="395.52" viewBox="2 -35.3 225.63 36.099999999999994" height="63.27618878794593" data-palette-color="#000000"><path d="M28.15 0L23.95 0 17.1-35.25 21.2-35.25 28.15 0ZM13 0L8.5 0 2-35.25 6.5-35.25 13 0ZM14.1 0L9.85 0 16.85-35.25 20.95-35.25 14.1 0ZM29.5 0L25.05 0 31.55-35.25 36-35.25 29.5 0ZM57.8 0L53.25 0 53.25-17.2 57.8-17.2 57.8 0ZM47.15 0.75L47.15 0.75 47.5-3Q49.3-3 50.57-3.9 51.85-4.8 52.55-6.55 53.25-8.3 53.25-10.7L53.25-10.7 55.5-10.8Q55.5-7.4 54.4-4.8 53.3-2.2 51.42-0.73 49.55 0.75 47.15 0.75ZM47.5-3L47.15 0.75Q44.9 0.75 43.05-0.3 41.2-1.35 40.1-3.18 39-5 39-7.25L39-7.25 43.3-7.4Q43.3-5.5 44.57-4.25 45.85-3 47.5-3L47.5-3ZM43.3-7.4L39-7.25Q39-9.6 40.17-11.38 41.35-13.15 43.35-14.2 45.35-15.25 47.9-15.25L47.9-15.25 48.15-11.75Q46.05-11.75 44.67-10.53 43.3-9.3 43.3-7.4L43.3-7.4ZM55.6-11.75L48.15-11.75 47.9-15.25 55.6-15.25 55.6-11.75ZM55.5-10.8L53.25-10.7 53.25-17.15 55.5-17.15 55.5-10.8ZM57.8-17.1L57.8-17.1 53.25-17.1Q53.25-19.3 51.92-20.7 50.6-22.1 48.5-22.1L48.5-22.1 48.5-26Q51.2-26 53.27-24.85 55.35-23.7 56.57-21.68 57.8-19.65 57.8-17.1ZM43.8-17.7L43.8-17.7 39.6-18.55Q39.9-20.8 41.12-22.45 42.35-24.1 44.27-25.05 46.2-26 48.55-26L48.55-26 48.55-22.1Q46.7-22.1 45.37-21.03 44.05-19.95 43.8-17.7ZM67.5 0L62.95 0 62.95-25.25 67.5-25.25 67.5 0ZM81.55 0L77 0 77-17.2 81.55-17.2 81.55 0ZM81.55-17.2L77-17.2Q77-19.3 75.69-20.63 74.39-21.95 72.34-21.95L72.34-21.95 73.5-26Q75.8-26 77.62-24.85 79.44-23.7 80.5-21.7 81.55-19.7 81.55-17.2L81.55-17.2ZM67.5-17.1L65.5-17.1Q65.5-19.65 66.55-21.68 67.59-23.7 69.39-24.85 71.19-26 73.5-26L73.5-26 72.34-21.95Q70.19-21.95 68.84-20.6 67.5-19.25 67.5-17.1L67.5-17.1ZM104.54-35.25L104.54-25.2 99.99-25.2 99.99-35.25 104.54-35.25ZM104.54 0L99.99 0 99.99-25.25 104.54-25.25 104.54 0ZM90.49-8.05L85.94-8.05 85.94-17.2 90.49-17.2 90.49-8.05ZM90.49-17.2L90.49-17.2 85.94-17.2Q85.94-19.7 86.99-21.7 88.04-23.7 89.87-24.85 91.69-26 94.04-26L94.04-26 95.19-21.95Q93.14-21.95 91.82-20.63 90.49-19.3 90.49-17.2ZM101.99-17.1L101.99-17.1 99.99-17.1Q99.99-19.25 98.64-20.6 97.29-21.95 95.19-21.95L95.19-21.95 94.04-26Q96.29-26 98.12-24.85 99.94-23.7 100.97-21.68 101.99-19.65 101.99-17.1ZM85.94-8.05L90.49-8.05Q90.49-5.95 91.82-4.63 93.14-3.3 95.19-3.3L95.19-3.3 94.04 0.75Q91.69 0.75 89.87-0.4 88.04-1.55 86.99-3.55 85.94-5.55 85.94-8.05L85.94-8.05ZM99.99-8.2L101.99-8.2Q101.99-5.65 100.97-3.63 99.94-1.6 98.12-0.43 96.29 0.75 94.04 0.75L94.04 0.75 95.19-3.3Q97.29-3.3 98.64-4.65 99.99-6 99.99-8.2L99.99-8.2ZM127.69-11.25L110.64-11.25 110.64-14.5 127.69-14.5 127.69-11.25ZM118.64 0.8L118.39 0.8 118.39-3.15 118.64-3.15 118.64 0.8ZM113.74-8.95L109.19-8.95 109.19-16.3 113.74-16.3 113.74-8.95ZM127.69-14.5L123.14-14.5 123.14-17.1 127.69-17.1 127.69-14.5ZM127.69-17.1L127.69-17.1 123.14-17.1Q123.14-19.3 121.82-20.7 120.49-22.1 118.39-22.1L118.39-22.1 118.39-26Q121.09-26 123.17-24.85 125.24-23.7 126.47-21.68 127.69-19.65 127.69-17.1ZM123.34-7.5L123.34-7.5 127.59-6.65Q127.29-4.5 126.04-2.8 124.79-1.1 122.89-0.15 120.99 0.8 118.64 0.8L118.64 0.8 118.64-3.15Q120.44-3.15 121.77-4.23 123.09-5.3 123.34-7.5ZM113.74-16.25L109.19-16.25Q109.19-19.1 110.42-21.28 111.64-23.45 113.72-24.73 115.79-26 118.44-26L118.44-26 118.44-22.1Q116.24-22.1 114.99-20.58 113.74-19.05 113.74-16.25L113.74-16.25ZM109.19-8.95L109.19-8.95 113.74-8.95Q113.74-6.2 114.99-4.67 116.24-3.15 118.44-3.15L118.44-3.15 118.44 0.8Q115.79 0.8 113.72-0.48 111.64-1.75 110.42-3.95 109.19-6.15 109.19-8.95ZM136.89 0L132.34 0 132.34-25.25 136.89-25.25 136.89 0ZM136.89-16.9L134.84-16.9Q134.84-19.45 135.69-21.48 136.54-23.5 138.01-24.65 139.49-25.8 141.29-25.8L141.29-25.8 140.89-21.55Q139.14-21.55 138.01-20.23 136.89-18.9 136.89-16.9L136.89-16.9ZM145.44-24.2L143.89-20.4Q143.29-20.9 142.46-21.23 141.64-21.55 140.89-21.55L140.89-21.55 141.29-25.8Q142.44-25.8 143.54-25.38 144.64-24.95 145.44-24.2L145.44-24.2ZM165.09 0L152.24 0 152.24-3.95 165.09-3.95 165.09 0ZM153.74 0L149.19 0 149.19-35.25 153.74-35.25 153.74 0ZM182.38-25.25L186.93-25.25 186.93 0 182.38 0 182.38-25.25ZM168.33-25.25L172.88-25.25 172.88-8.05 168.33-8.05 168.33-25.25ZM168.33-8.05L172.88-8.05Q172.88-5.95 174.21-4.63 175.53-3.3 177.58-3.3L177.58-3.3 176.43 0.75Q174.08 0.75 172.26-0.4 170.43-1.55 169.38-3.55 168.33-5.55 168.33-8.05L168.33-8.05ZM182.38-8.2L184.38-8.2Q184.38-5.65 183.36-3.63 182.33-1.6 180.51-0.43 178.68 0.75 176.43 0.75L176.43 0.75 177.58-3.3Q179.68-3.3 181.03-4.65 182.38-6 182.38-8.2L182.38-8.2ZM204.78-6.5L204.78-6.5Q204.78-7.75 203.88-8.58 202.98-9.4 201.56-10.08 200.13-10.75 198.56-11.45 196.98-12.15 195.56-13.08 194.13-14 193.23-15.43 192.33-16.85 192.33-18.9L192.33-18.9Q192.33-18.9 192.76-18.9 193.18-18.9 193.86-18.9 194.53-18.9 195.18-18.9 195.83-18.9 196.28-18.9 196.73-18.9 196.73-18.9L196.73-18.9Q196.73-17.65 197.63-16.82 198.53-16 199.96-15.35 201.38-14.7 202.98-13.98 204.58-13.25 205.98-12.3 207.38-11.35 208.31-9.98 209.23-8.6 209.23-6.5L209.23-6.5Q209.23-6.5 208.78-6.5 208.33-6.5 207.66-6.5 206.98-6.5 206.33-6.5 205.68-6.5 205.23-6.5 204.78-6.5 204.78-6.5ZM200.53 0.75L200.53 0.75 200.53-3.2Q202.38-3.2 203.58-4.13 204.78-5.05 204.78-6.5L204.78-6.5 209.23-6.5Q209.23-4.4 208.11-2.75 206.98-1.1 205.03-0.18 203.08 0.75 200.53 0.75ZM196.73-18.9L192.33-18.9Q192.33-20.95 193.36-22.58 194.38-24.2 196.23-25.13 198.08-26.05 200.33-26.05L200.33-26.05 200.33-22.1Q198.78-22.1 197.76-21.2 196.73-20.3 196.73-18.9L196.73-18.9ZM191.58-6.7L195.78-7.55Q196.03-5.35 197.38-4.28 198.73-3.2 200.53-3.2L200.53-3.2 200.53 0.75Q198.23 0.75 196.28-0.2 194.33-1.15 193.11-2.85 191.88-4.55 191.58-6.7L191.58-6.7ZM209.28-18.6L205.03-17.75Q204.78-20 203.46-21.05 202.13-22.1 200.33-22.1L200.33-22.1 200.33-26.05Q202.68-26.05 204.58-25.1 206.48-24.15 207.73-22.48 208.98-20.8 209.28-18.6L209.28-18.6ZM220.13-7.65L215.58-7.65 215.58-35.3 220.13-35.25 220.13-7.65ZM226.43-21.5L212.68-21.5 212.68-25.25 226.43-25.25 226.43-21.5ZM215.58-7.7L215.58-7.7 220.13-7.7Q220.13-6.25 220.53-5.25 220.93-4.25 221.68-3.73 222.43-3.2 223.48-3.2L223.48-3.2 223.08 0.75Q219.58 0.75 217.58-1.48 215.58-3.7 215.58-7.7ZM225.83-4.05L225.83-4.05 227.63-0.8Q226.63-0.05 225.45 0.35 224.28 0.75 223.08 0.75L223.08 0.75 223.48-3.2Q224.13-3.2 224.7-3.43 225.28-3.65 225.83-4.05Z" opacity="1" transform="matrix(1,0,0,1,0,0)" fill="#000000" class="wordmark-text-0" data-fill-palette-color="primary" id="text-0"></path></svg></g></svg></g></svg></g></svg></g><g transform="matrix(1,0,0,1,157.35405185491666,0)"><svg viewBox="0 0 80.81189629016666 87.44769290494128" height="87.44769290494128" width="80.81189629016666"><g><svg xmlns="http://www.w3.org/2000/svg" xmlns:xlink="http://www.w3.org/1999/xlink" version="1.1" x="8" y="0" viewBox="16.4 4.7 67 90.39999999999999" enable-background="new 0 0 100 100" xml:space="preserve" height="87.44769290494128" width="64.81189629016666" class="icon-icon-0" data-fill-palette-color="accent" id="icon-0"><path d="M52.8 91.7c0 1.8-1.5 3.3-3.3 3.3s-3.3-1.5-3.3-3.3 1.5-3.3 3.3-3.3S52.8 89.9 52.8 91.7zM23 88.5c-1.8 0-3.3 1.5-3.3 3.3S21.2 95 23 95s3.3-1.5 3.3-3.3S24.8 88.5 23 88.5zM79.5 88.5c-1.8 0-3.3 1.5-3.3 3.3s1.5 3.3 3.3 3.3 3.3-1.5 3.3-3.3S81.3 88.5 79.5 88.5zM62.3 88.5c-1.8 0-3.3 1.5-3.3 3.3s1.5 3.3 3.3 3.3c1.8 0 3.3-1.5 3.3-3.3S64.1 88.5 62.3 88.5zM56.1 32.8v49.9c0 2-1.6 3.6-3.6 3.6H20c-2 0-3.6-1.6-3.6-3.6V32.8c0-2 1.6-3.6 3.6-3.6h9.4V11.1h-1.2c-0.7 0-1.2-0.6-1.2-1.2 0-0.7 0.6-1.2 1.2-1.2h16.1c0.7 0 1.2 0.6 1.2 1.2 0 0.7-0.6 1.2-1.2 1.2h-1.2v18.1h9.4C54.5 29.2 56.1 30.8 56.1 32.8zM31.3 29.2h9.9V11.1h-9.9V29.2zM49.5 57.1c0-1.9-1.6-3.5-3.5-3.5H26.6c-1.9 0-3.5 1.6-3.5 3.5v18.5c0 1.9 1.6 3.5 3.5 3.5h19.3c1.9 0 3.5-1.6 3.5-3.5V57.1zM45.9 55.4H26.6c-0.9 0-1.7 0.7-1.7 1.7v18.5c0 0.9 0.7 1.7 1.7 1.7h19.3c0.9 0 1.7-0.7 1.7-1.7V57.1C47.6 56.2 46.8 55.4 45.9 55.4zM81.4 39.3c-1.1 0-2-0.9-2-2V18.3c0-1.1-0.9-2-2-2h-2.8v70h4.8 2c1.1 0 2-0.9 2-2v-43C83.4 40.2 82.5 39.3 81.4 39.3zM72.7 16.3H61.2V7.4c0.4-0.3 0.6-0.7 0.6-1.2 0-0.8-0.7-1.5-1.5-1.5s-1.5 0.7-1.5 1.5c0 0.5 0.2 0.9 0.6 1.2v9.8c-0.2 0.3-0.3 0.7-0.3 1.1v65.9c0 1.1 0.9 2 2 2h8.3 3.4V16.3z" fill="#000000" data-fill-palette-color="accent"></path></svg></g></svg></g><g><rect width="157.35405185491666" height="5.7063120059237935" y="80.74138089901749" x="238.16594814508332" fill="#000000" data-fill-palette-color="accent"></rect><rect width="157.35405185491666" height="5.7063120059237935" y="80.74138089901749" x="0" fill="#000000" data-fill-palette-color="accent"></rect><rect width="157.35405185491666" height="5.7063120059237935" y="69.3287568871699" x="238.16594814508332" fill="#000000" data-fill-palette-color="accent"></rect><rect width="157.35405185491666" height="5.7063120059237935" y="69.3287568871699" x="0" fill="#000000" data-fill-palette-color="accent"></rect></g></svg></g><defs></defs></svg><rect width="395.52" height="165.66187123719033" fill="none" stroke="none" visibility="hidden"></rect></g></svg></g></svg>